<svg width="139" height="50" viewBox="0 0 139 50" fill="none" xmlns="http://www.w3.org/2000/svg">
<path d="M121.938 24.2606V28.1243L138.761 21.4702L134.146 19.6099L121.938 24.2606Z" fill="#5DB14E"/>
<path d="M126.857 12.7501L133.69 10.0849V6.22122L121.938 10.8093L126.857 12.7501Z" fill="#F05734"/>
<path d="M121.938 14.673V10.8093L138.761 17.4634V21.4791L121.938 14.673Z" fill="#AFD136"/>
<path d="M66.0222 34.2063C64.3318 34.2063 62.8382 33.8127 61.5324 33.0346C60.2267 32.2565 59.216 31.2191 58.5005 29.9401V42.8011H52.9733V11.8023H57.8387V15.6123C58.6705 14.3334 59.7258 13.3138 60.9958 12.5804C62.2748 11.8381 63.7236 11.4714 65.3603 11.4714C66.8271 11.4714 68.1776 11.7665 69.4118 12.3479C70.6461 12.9382 71.7282 13.752 72.6584 14.7985C73.5885 15.8449 74.304 17.0523 74.7959 18.4207C75.2968 19.789 75.5472 21.2379 75.5472 22.7762C75.5472 24.8959 75.1358 26.8277 74.3219 28.5538C73.508 30.2889 72.3811 31.6573 70.9501 32.6769C69.5191 33.6965 67.8825 34.2063 66.0222 34.2063ZM64.1529 29.3767C64.9847 29.3767 65.7539 29.1978 66.4604 28.84C67.167 28.4823 67.7662 27.9993 68.267 27.3822C68.7679 26.7741 69.1525 26.0586 69.4297 25.2447C69.707 24.4308 69.8411 23.5901 69.8411 22.7315C69.8411 21.8461 69.698 21.0054 69.4029 20.2183C69.1077 19.4313 68.6874 18.7426 68.1329 18.1613C67.5784 17.5799 66.9344 17.1238 66.201 16.7929C65.4677 16.462 64.6538 16.2921 63.7684 16.2921C63.2675 16.2921 62.7488 16.3815 62.2122 16.5604C61.6755 16.7392 61.1479 16.9897 60.656 17.3206C60.1551 17.6515 59.7258 18.0271 59.3681 18.4564C59.0103 18.8857 58.7152 19.3687 58.4916 19.9232V25.0748C58.8493 25.8707 59.3144 26.6041 59.8868 27.266C60.4502 27.9278 61.1121 28.4465 61.8634 28.8132C62.6146 29.1889 63.3748 29.3767 64.1529 29.3767Z" fill="#F05734"/>
<path d="M73.6332 27.3013C73.6332 25.8793 74.0267 24.6361 74.8138 23.5808C75.6008 22.5254 76.7009 21.6936 78.0961 21.0944C79.4913 20.4952 81.128 20.1911 82.9794 20.1911C83.8916 20.1911 84.8218 20.2627 85.7609 20.4058C86.6999 20.5489 87.5228 20.7724 88.2114 21.0855V19.8602C88.2114 18.5007 87.809 17.4454 87.004 16.7031C86.1991 15.9518 84.9917 15.5762 83.3908 15.5762C82.1744 15.5762 81.0207 15.7908 79.9385 16.2112C78.8563 16.6315 77.7205 17.2397 76.531 18.0357L74.7869 14.3509C76.2 13.3671 77.6579 12.6337 79.1694 12.1686C80.6808 11.7035 82.2639 11.471 83.9274 11.471C87.0309 11.471 89.4546 12.2402 91.1807 13.7874C92.9158 15.3347 93.7833 17.5617 93.7833 20.4862V27.4534C93.7833 28.0347 93.8907 28.4551 94.0964 28.7055C94.3021 28.9559 94.6419 29.108 95.1159 29.1616V33.7766C94.6151 33.8571 94.1679 33.9286 93.7655 33.9912C93.363 34.0449 93.0231 34.0628 92.7459 34.0359C91.6369 34.0359 90.7961 33.7855 90.2327 33.2936C89.6603 32.8017 89.3204 32.1846 89.2131 31.4512L89.0879 30.3064C88.113 31.5496 86.9235 32.5066 85.5104 33.1863C84.0973 33.866 82.6574 34.2059 81.1906 34.2059C79.7507 34.2059 78.4539 33.9018 77.3001 33.2847C76.1464 32.6675 75.252 31.8447 74.5991 30.7983C73.9552 29.7519 73.6332 28.5803 73.6332 27.3013ZM87.1829 28.3656C87.487 28.0884 87.7374 27.7754 87.9342 27.4176C88.1309 27.0599 88.2293 26.7558 88.2293 26.5053V24.3141C87.5675 24.0369 86.843 23.8222 86.0649 23.6702C85.2868 23.5182 84.5535 23.4466 83.8648 23.4466C82.4249 23.4466 81.2353 23.7596 80.3141 24.3767C79.384 24.9939 78.9189 25.8167 78.9189 26.8363C78.9189 27.3908 79.071 27.9184 79.3751 28.4282C79.6791 28.938 80.1174 29.3405 80.6808 29.6446C81.2443 29.9487 81.9508 30.1007 82.7826 30.1007C83.6144 30.1007 84.4282 29.9397 85.2332 29.6088C86.0381 29.2689 86.682 28.8575 87.1829 28.3656Z" fill="#F05734"/>
<path d="M103.317 34.2062C101.877 34.2062 100.554 33.911 99.3464 33.3118C98.139 32.7215 97.1104 31.9076 96.2518 30.8702C95.3932 29.8416 94.7314 28.6432 94.2574 27.2838C93.7834 25.9243 93.5508 24.4844 93.5508 22.955C93.5508 21.3451 93.7923 19.8426 94.2753 18.4563C94.7582 17.0701 95.4559 15.8448 96.3502 14.7894C97.2535 13.7251 98.3178 12.9112 99.5521 12.3299C100.786 11.7486 102.155 11.4624 103.648 11.4624C105.339 11.4624 106.823 11.847 108.093 12.6072C109.372 13.3674 110.419 14.3959 111.25 15.7017V11.8022H116.116V32.7841C116.116 34.9753 115.588 36.8446 114.533 38.4008C113.477 39.957 112.055 41.1465 110.249 41.9782C108.442 42.801 106.367 43.2214 104.015 43.2214C101.663 43.2214 99.6594 42.8189 98.0316 42.014C96.3949 41.2091 94.9997 40.0732 93.8281 38.6065L96.86 35.6014C97.6918 36.6478 98.7382 37.4617 99.9992 38.0609C101.26 38.6512 102.602 38.9463 104.015 38.9463C105.178 38.9463 106.26 38.7406 107.262 38.3292C108.263 37.9178 109.05 37.2828 109.632 36.4153C110.213 35.5477 110.508 34.4208 110.508 33.0167V30.2262C109.81 31.4962 108.809 32.48 107.494 33.1687C106.179 33.8574 104.784 34.2062 103.317 34.2062ZM105.187 29.6717C105.822 29.6717 106.412 29.5733 106.957 29.3766C107.494 29.1798 108.004 28.9115 108.478 28.5716C108.952 28.2318 109.363 27.8293 109.721 27.3642C110.079 26.8992 110.347 26.4073 110.508 25.8975V20.6297C110.204 19.7532 109.757 18.984 109.158 18.3401C108.558 17.6872 107.897 17.1863 107.163 16.8286C106.43 16.4708 105.661 16.3009 104.856 16.3009C104.024 16.3009 103.255 16.4887 102.548 16.8554C101.842 17.2221 101.242 17.7319 100.742 18.3848C100.241 19.0377 99.8561 19.7711 99.5789 20.5939C99.3016 21.4167 99.1675 22.2663 99.1675 23.1428C99.1675 24.0461 99.3285 24.8958 99.6415 25.6918C99.9635 26.4878 100.393 27.1854 100.929 27.7935C101.466 28.4017 102.11 28.8668 102.861 29.1977C103.612 29.5107 104.382 29.6717 105.187 29.6717Z" fill="#F05734"/>
<path d="M53.6352 16.0327C49.6553 16.0327 46.1494 18.6353 46.1494 23.2055V34.412H40.9084V11.4356H45.8989V14.9416C47.0527 13.1439 48.7609 11.7934 51.1936 11.7934C51.8018 11.7934 52.8661 11.7934 53.7515 11.7934" fill="#F05734"/>
<path d="M18.0305 22.928C18.0305 16.2202 23.0658 11.48 29.9345 11.48C36.8927 11.48 41.8833 16.2202 41.8833 22.928C41.8833 29.6357 36.8927 34.4206 29.9345 34.4206C23.0658 34.4206 18.0305 29.6357 18.0305 22.928ZM36.6065 22.928C36.6065 18.6529 33.7535 15.9251 29.9434 15.9251C26.1692 15.9251 23.3162 18.6529 23.3162 22.928C23.3162 27.203 26.1692 29.9309 29.9434 29.9309C33.7535 29.9309 36.6065 27.203 36.6065 22.928Z" fill="#F05734"/>
<path d="M0 31.8986L2.01233 27.9097C3.98888 29.2155 7.01185 30.1367 9.82017 30.1367C13.1383 30.1367 14.5245 29.2155 14.5245 27.6593C14.5245 23.3753 0.661833 27.4089 0.661833 18.4652C0.661833 14.2259 4.48079 11.4533 10.5267 11.4533C13.505 11.4533 16.9125 12.1688 18.9248 13.3852L16.9125 17.3741C14.775 16.113 12.6285 15.6926 10.4909 15.6926C7.29805 15.6926 5.78656 16.7391 5.78656 18.2148C5.78656 22.7492 19.6493 18.7156 19.6493 27.4983C19.6493 31.7018 15.7856 34.4297 9.48925 34.4297C5.75079 34.4207 2.01233 33.3296 0 31.8986Z" fill="#F05734"/>
</svg>
